<?xml version="1.0" encoding="utf-8"?>
<!-- Generator: Adobe Illustrator 26.5.0, SVG Export Plug-In . SVG Version: 6.00 Build 0)  -->
<svg version="1.1" id="Layer_1" xmlns="http://www.w3.org/2000/svg" xmlns:xlink="http://www.w3.org/1999/xlink" x="0px" y="0px"
	 viewBox="0 0 363.11 357.88" style="enable-background:new 0 0 363.11 357.88;" xml:space="preserve">
<style type="text/css">
	.st0{fill:#E7B3BB;}
	.st1{fill:#FFFFFF;}
	.st2{fill:#B97583;}
	.st3{fill:#424243;}
	.st4{display:none;}
	.st5{display:inline;}
</style>
<g>
	<g>
		<path class="st0" d="M-1800.01,227.32c-0.72,0-1.43,0.05-2.14,0.11c0-0.1-0.01-0.19-0.02-0.29c0.32,0.01,0.65,0.05,0.97,0.05
			c0.92,0,1.85-0.06,2.77-0.16c13.12-1.53,22.52-13.38,20.99-26.47c-1.53-13.12-13.38-22.52-26.47-20.99
			c-1.27,0.14-2.49,0.41-3.68,0.74c-0.03-0.17-0.05-0.33-0.08-0.5c1.23-0.09,2.46-0.25,3.7-0.53c12.87-2.99,20.83-15.86,17.84-28.7
			c-3-12.87-15.86-20.83-28.7-17.84c-1.25,0.29-2.43,0.7-3.58,1.17c-0.05-0.16-0.1-0.32-0.14-0.48c1.22-0.24,2.43-0.54,3.63-0.97
			c12.42-4.46,18.89-18.12,14.43-30.55c-4.46-12.42-18.16-18.86-30.58-14.4c-1.19,0.43-2.3,0.96-3.38,1.55
			c-0.07-0.16-0.14-0.31-0.21-0.47c1.18-0.37,2.35-0.8,3.49-1.36c11.82-5.86,16.66-20.19,10.8-32.01
			c-5.86-11.82-20.16-16.66-32.01-10.8c-1.14,0.56-2.19,1.22-3.2,1.93c-0.08-0.14-0.16-0.28-0.24-0.42c1.13-0.5,2.24-1.08,3.31-1.77
			c11.08-7.17,14.24-21.95,7.1-33.03c-7.2-11.08-21.98-14.24-33.06-7.07c-1.06,0.69-2.03,1.46-2.95,2.29
			c-0.1-0.14-0.2-0.28-0.3-0.41c1.07-0.63,2.11-1.31,3.1-2.13c10.19-8.38,11.66-23.41,3.31-33.6c-8.38-10.19-23.44-11.69-33.63-3.31
			c-0.99,0.81-1.86,1.7-2.69,2.63c-0.11-0.13-0.24-0.25-0.35-0.38c0.99-0.75,1.95-1.55,2.85-2.47c9.17-9.46,8.92-24.59-0.54-33.76
			c-9.49-9.17-24.62-8.95-33.8,0.54c-0.88,0.91-1.64,1.88-2.35,2.88c-0.13-0.11-0.26-0.22-0.39-0.33c0.89-0.84,1.75-1.74,2.52-2.74
			c8.06-10.48,6.08-25.45-4.36-33.51c-10.45-8.06-25.45-6.08-33.51,4.36c-0.77,1.01-1.43,2.07-2.02,3.15
			c-0.15-0.1-0.29-0.2-0.43-0.3c0.79-0.95,1.54-1.95,2.19-3.04c6.82-11.28,3.19-25.96-8.12-32.78c-11.31-6.82-25.99-3.15-32.81,8.15
			c-0.66,1.09-1.19,2.22-1.65,3.37c-0.11-0.06-0.23-0.12-0.35-0.19c0.65-1.01,1.24-2.08,1.74-3.2c5.48-12.01,0.16-26.04-11.85-31.48
			c-12.01-5.48-26.18,0.14-31.63,12.14c-0.45,0.99-0.8,1.99-1.11,3c-0.21-0.08-0.43-0.16-0.64-0.24c0.56-1.1,1.05-2.26,1.43-3.47
			c4.08-12.55-2.83-26.02-15.38-30.07c-12.55-4.05-26.02,2.84-30.07,15.38c-0.39,1.22-0.65,2.44-0.84,3.66
			c-0.17-0.05-0.34-0.09-0.51-0.14c0.43-1.15,0.78-2.35,1.03-3.59c2.58-12.93-5.79-25.51-18.73-28.13
			c-12.96-2.58-25.54,5.83-28.13,18.76c-0.25,1.25-0.37,2.5-0.42,3.74c-0.16-0.02-0.33-0.05-0.5-0.07c0.29-1.2,0.52-2.43,0.63-3.7
			c1.08-13.15-8.7-24.69-21.82-25.8c-13.16-1.08-24.72,8.7-25.8,21.85c-0.1,1.26-0.08,2.5,0.01,3.72c-0.13,0-0.27-0.01-0.4-0.02
			c0.08-0.92,0.13-1.86,0.1-2.83c-0.38-13.19-11.4-24.1-24.59-23.71c-13.19,0.41-23.54,11.75-23.16,24.94
			c0.03,1.03,0.15,2.04,0.3,3.04c-0.12,0.01-0.25,0.02-0.37,0.03c0.02-1.23-0.03-2.48-0.21-3.74
			c-1.88-13.06-13.98-22.14-27.04-20.26c-13.06,1.88-22.1,14.01-20.23,27.07c0.18,1.25,0.47,2.46,0.83,3.63
			c-0.16,0.03-0.32,0.06-0.48,0.09c-0.12-1.23-0.31-2.46-0.64-3.69c-3.38-12.74-16.44-20.35-29.21-17.01
			c-12.74,3.38-20.36,16.44-17.01,29.21c0.33,1.23,0.77,2.41,1.27,3.54c-0.16,0.05-0.33,0.11-0.49,0.16
			c-0.27-1.21-0.6-2.42-1.07-3.61c-4.81-12.29-18.66-18.35-30.93-13.57c-12.29,4.84-18.35,18.7-13.54,30.96
			c0.46,1.19,1.01,2.32,1.63,3.38c-0.15,0.07-0.3,0.14-0.45,0.21c-0.4-1.17-0.87-2.33-1.47-3.46c-6.18-11.66-20.64-16.08-32.3-9.91
			c-11.66,6.18-16.08,20.64-9.91,32.3c0.6,1.12,1.28,2.16,2.03,3.15c-0.14,0.09-0.29,0.17-0.43,0.25c-0.53-1.11-1.13-2.2-1.85-3.24
			c-7.45-10.89-22.33-13.63-33.19-6.18c-10.89,7.49-13.63,22.36-6.18,33.22c0.72,1.05,1.54,2,2.39,2.9
			c-0.13,0.1-0.27,0.21-0.41,0.31c-0.65-1.05-1.37-2.06-2.21-3.02c-8.66-9.97-23.76-11.02-33.7-2.36
			c-9.97,8.66-11.02,23.73-2.36,33.7c0.84,0.97,1.75,1.81,2.7,2.61c-0.12,0.12-0.24,0.24-0.36,0.35c-0.77-0.97-1.61-1.91-2.55-2.78
			c-9.72-8.89-24.81-8.25-33.73,1.5c-8.92,9.71-8.25,24.84,1.47,33.73c0.94,0.86,1.94,1.61,2.98,2.3c-0.11,0.14-0.22,0.27-0.33,0.41
			c-0.87-0.87-1.8-1.71-2.84-2.45c-10.67-7.77-25.61-5.38-33.35,5.29c-7.77,10.67-5.38,25.61,5.29,33.38
			c1.03,0.74,2.09,1.38,3.19,1.94c-0.09,0.14-0.18,0.27-0.27,0.41c-0.96-0.76-1.98-1.47-3.08-2.09c-11.5-6.5-26.05-2.42-32.55,9.05
			c-6.47,11.5-2.42,26.06,9.08,32.55c1.1,0.63,2.25,1.13,3.41,1.56c-0.08,0.16-0.16,0.32-0.24,0.48c-1.05-0.65-2.15-1.26-3.33-1.75
			c-12.13-5.13-26.15,0.57-31.28,12.71c-5.13,12.17,0.57,26.18,12.71,31.31c1.18,0.5,2.38,0.86,3.59,1.16
			c-0.06,0.16-0.12,0.33-0.17,0.49c-1.12-0.53-2.28-1.01-3.51-1.37c-12.68-3.7-25.93,3.6-29.62,16.24
			c-3.69,12.68,3.57,25.93,16.25,29.62c1.21,0.36,2.44,0.6,3.65,0.75c-0.04,0.16-0.07,0.32-0.11,0.48
			c-1.16-0.39-2.36-0.73-3.61-0.94c-13.03-2.23-25.35,6.53-27.58,19.52c-2.23,13.03,6.53,25.35,19.53,27.58
			c1.27,0.21,2.52,0.32,3.76,0.34c-0.02,0.16-0.03,0.32-0.05,0.48c-1.21-0.26-2.44-0.46-3.7-0.53c-13.19-0.73-24.46,9.37-25.2,22.55
			c-0.73,13.15,9.36,24.43,22.55,25.16c0.44,0.03,0.89,0.03,1.34,0.03c0.8,0,1.6-0.04,2.38-0.12c0,0.16,0.01,0.32,0.01,0.48
			c-1.22-0.12-2.46-0.17-3.72-0.1c-13.19,0.76-23.25,12.04-22.49,25.23c0.73,12.68,11.28,22.52,23.83,22.52
			c0.48,0,0.92-0.03,1.4-0.03c1.27-0.07,2.51-0.28,3.71-0.54c0.02,0.16,0.04,0.32,0.06,0.48c-1.23,0.02-2.48,0.1-3.74,0.32
			c-13.03,2.26-21.72,14.62-19.49,27.62c2.04,11.63,12.1,19.84,23.54,19.84c0.9,0,1.82-0.08,2.74-0.19
			c-11.76,5.07-18.33,28.38-14.74,28.38c-0.03,0-0.03,0-0.03,0c3.09,12.74,12.61,17.75,22.93,17.75c2.23,0,4.49,0.29,6.75-0.34
			c1.2-0.35,2.34-0.82,3.44-1.35c0.07,0.2,0.14,0.41,0.21,0.62c-1.2,0.3-2.39,0.66-3.56,1.16c-12.17,5.16-17.84,19.17-12.68,31.34
			c3.85,9.08,12.71,14.56,22.01,14.56c3.12,0,6.27-0.61,9.3-1.91c1.18-0.5,2.28-1.11,3.33-1.77c0.07,0.15,0.15,0.3,0.22,0.44
			c-1.16,0.44-2.31,0.94-3.43,1.58c-11.47,6.5-15.51,21.09-8.98,32.55c4.4,7.77,12.49,12.1,20.8,12.1c3.98,0,8.03-0.99,11.75-3.09
			c1.11-0.63,2.12-1.35,3.09-2.12c0.09,0.14,0.18,0.27,0.27,0.41c-1.09,0.56-2.17,1.19-3.2,1.94c-10.67,7.77-13,22.71-5.22,33.38
			c4.68,6.4,11.94,9.81,19.3,9.81c4.91,0,9.81-1.5,14.08-4.59c1.02-0.75,1.94-1.58,2.81-2.45c0.11,0.13,0.21,0.26,0.31,0.38
			c-1.03,0.68-2.03,1.43-2.96,2.29c-9.71,8.92-10.35,24.05-1.4,33.76c4.71,5.13,11.15,7.71,17.58,7.71c5.8,0,11.56-2.07,16.18-6.31
			c0.94-0.86,1.76-1.79,2.53-2.75c0.12,0.12,0.24,0.24,0.36,0.35c-0.95,0.8-1.86,1.66-2.7,2.62c-8.63,9.97-7.55,25.07,2.42,33.7
			c4.52,3.89,10.1,5.83,15.64,5.83c6.69,0,13.34-2.8,18.06-8.25c0.84-0.97,1.55-1.99,2.21-3.04c0.14,0.11,0.28,0.21,0.42,0.32
			c-0.85,0.9-1.65,1.86-2.37,2.91c-7.45,10.86-4.68,25.74,6.21,33.19c4.14,2.83,8.82,4.17,13.48,4.17c7.61,0,15.1-3.63,19.75-10.38
			c0.72-1.05,1.31-2.15,1.84-3.26c0.15,0.09,0.3,0.17,0.44,0.26c-0.74,0.99-1.43,2.03-2.02,3.16c-6.15,11.66-1.69,26.12,9.97,32.27
			c3.57,1.88,7.36,2.77,11.15,2.77c8.57,0,16.85-4.62,21.12-12.74c0.6-1.13,1.07-2.29,1.47-3.46c0.16,0.07,0.31,0.15,0.47,0.22
			c-0.62,1.07-1.19,2.18-1.65,3.36c-4.78,12.3,1.31,26.15,13.6,30.93c2.86,1.11,5.79,1.62,8.66,1.62c9.56,0,18.6-5.8,22.27-15.22
			c0.46-1.2,0.8-2.41,1.06-3.62c0.17,0.06,0.35,0.11,0.52,0.17c-0.5,1.14-0.94,2.31-1.26,3.55c-3.34,12.77,4.3,25.8,17.07,29.14
			c2.01,0.54,4.04,0.8,6.05,0.8c10.61,0,20.29-7.13,23.09-17.87c0.32-1.23,0.51-2.46,0.64-3.68c0.16,0.03,0.33,0.06,0.49,0.09
			c-0.36,1.18-0.66,2.39-0.84,3.65c-1.84,13.06,7.23,25.16,20.29,27.01c1.15,0.16,2.26,0.22,3.41,0.22c11.69,0,21.91-8.6,23.6-20.51
			c0.18-1.27,0.23-2.52,0.21-3.76c0.13,0.01,0.25,0.02,0.38,0.03c-0.15,0.98-0.27,1.98-0.3,3.01
			c-0.35,13.19,10.03,23.84,23.22,23.84c0.22,0,0.44,0,0.67,0c12.9,0,23.54-9.75,23.89-22.68c0.02-0.96-0.02-1.91-0.11-2.84
			c0.29-0.01,0.57-0.02,0.86-0.03c-0.1,1.23-0.14,2.47-0.03,3.74c1.05,12.45,11.39,21.88,23.65,21.88c0.7,0,1.26-0.03,1.96-0.1
			c12.96-1.1,22.84-12.39,21.99-25.34c2.46,11.05,12.27,18.65,23.25,18.65c1.56,0,3.15-0.16,4.75-0.48
			c12.93-2.61,21.31-15.22,18.7-28.16c-0.25-1.25-0.63-2.44-1.05-3.6c0.16-0.04,0.32-0.09,0.49-0.13c0.19,1.23,0.46,2.45,0.85,3.67
			c3.28,10.07,12.64,16.5,22.71,16.5c2.45,0,4.94-0.38,7.39-1.18c12.55-4.08,19.4-17.55,15.32-30.1c-0.4-1.21-0.9-2.35-1.46-3.46
			c0.19-0.08,0.39-0.15,0.58-0.22c0.32,1.05,0.68,2.1,1.16,3.14c4.02,8.79,12.68,14.06,21.72,14.06c3.34,0,6.72-0.57,9.94-2.06
			c12.01-5.48,17.26-19.89,11.79-31.87c-0.49-1.06-1.06-2.03-1.68-2.96c0.08-0.04,0.16-0.09,0.24-0.13c0.47,1.15,1,2.28,1.66,3.37
			c4.49,7.42,12.39,11.53,20.48,11.53c4.21,0,8.47-1.12,12.33-3.44c11.31-6.85,14.91-21.53,8.09-32.81
			c-0.66-1.09-1.41-2.09-2.21-3.04c0.13-0.09,0.27-0.19,0.4-0.28c0.59,1.08,1.25,2.15,2.03,3.16c4.72,6.08,11.79,9.27,18.92,9.27
			c5.1,0,10.26-1.63,14.59-4.97c10.45-8.06,12.36-23.09,4.3-33.51c-0.77-1-1.63-1.9-2.52-2.75c0.12-0.11,0.25-0.22,0.38-0.33
			c0.71,1,1.48,1.98,2.36,2.89c4.68,4.81,10.89,7.23,17.14,7.23c5.99,0,12.01-2.26,16.66-6.75c9.46-9.21,9.65-24.34,0.48-33.79
			c-0.89-0.91-1.85-1.71-2.84-2.46c0.12-0.12,0.23-0.25,0.35-0.37c0.82,0.92,1.7,1.8,2.68,2.6c4.43,3.63,9.78,5.42,15.1,5.42
			c6.91,0,13.79-2.99,18.51-8.76c8.38-10.22,6.85-25.26-3.34-33.64c-0.99-0.81-2.03-1.49-3.1-2.11c0.1-0.14,0.2-0.28,0.3-0.42
			c0.93,0.83,1.91,1.61,2.98,2.31c3.98,2.58,8.47,3.79,12.9,3.79c7.84,0,15.54-3.85,20.1-10.96c7.13-11.08,3.95-25.86-7.14-33
			c-1.08-0.69-2.2-1.26-3.33-1.76c0.09-0.15,0.17-0.31,0.26-0.46c1.01,0.71,2.06,1.37,3.2,1.93c3.41,1.69,7.01,2.45,10.54,2.45
			c8.82,0,17.3-4.87,21.47-13.31c5.83-11.85,0.95-26.18-10.89-32.01c-1.14-0.56-2.3-0.99-3.47-1.36c0.07-0.16,0.13-0.32,0.2-0.48
			c1.08,0.59,2.2,1.12,3.39,1.55c2.64,0.95,5.35,1.4,8.03,1.4c9.81,0,19.02-6.08,22.52-15.86c4.43-12.42-2.07-26.09-14.49-30.51
			c-1.2-0.43-2.42-0.73-3.64-0.96c0.05-0.17,0.11-0.35,0.16-0.52c1.15,0.47,2.33,0.87,3.58,1.16c1.81,0.41,3.63,0.6,5.41,0.6
			c10.86,0,20.67-7.45,23.25-18.51c2.96-12.84-5.03-25.67-17.9-28.63c-1.24-0.29-2.48-0.44-3.71-0.53c0.03-0.17,0.06-0.35,0.08-0.52
			c1.19,0.33,2.42,0.6,3.69,0.74c0.89,0.13,1.82,0.16,2.71,0.16c12.01,0,22.33-8.98,23.7-21.18c1.5-13.12-7.93-24.94-21.02-26.44
			c-1.27-0.14-2.52-0.16-3.75-0.1c0-0.1,0.01-0.19,0.02-0.29c0.71,0.06,1.42,0.11,2.15,0.11c13.19,0,23.89-10.7,23.89-23.89
			c0-0.16,0-0.29,0-0.45c0-0.16,0-0.32,0-0.51C-1776.05,237.96-1786.82,227.28-1800.01,227.32z M-2158.91,665.76
			c-0.04-0.18-0.08-0.36-0.13-0.54c0.03,0,0.07-0.01,0.1-0.01C-2158.93,665.39-2158.92,665.57-2158.91,665.76z"/>
	</g>
</g>
<g>
	<g>
		<path class="st1" d="M-2217.78-148.59c221,0,400.18,179.18,400.18,400.19s-179.18,400.19-400.18,400.19
			c-221.02,0-400.19-179.18-400.19-400.19S-2438.8-148.59-2217.78-148.59"/>
	</g>
</g>
<g>
	<g>
		<path class="st2" d="M-2217.78,639.45c-213.87,0-387.86-173.99-387.86-387.85c0-213.86,173.99-387.85,387.86-387.85
			c213.86,0,387.85,173.99,387.85,387.85C-1829.93,465.46-2003.92,639.45-2217.78,639.45z M-2217.78-129.22
			c-209.98,0-380.82,170.83-380.82,380.82c0,209.98,170.84,380.81,380.82,380.81c209.98,0,380.81-170.83,380.81-380.81
			C-1836.97,41.62-2007.8-129.22-2217.78-129.22z"/>
	</g>
</g>
<g>
	<g>
		<path class="st3" d="M-2546.08,215.73c0,0-0.61,2.84-4.66,2.84c-10.14,0-3.85-26.76,24.73-26.76c25.34,0,31.22,31.02,28.58,65.08
			c-0.2,0,2.03,0,2.03,0c16.83-34.06,36.89-65.28,54.13-65.28c9.73,0,12.57,8.51,12.57,21.49c0,6.49-1.82,20.48-4.66,36.29
			c0,0,2.03,0,1.83,0c18.85-35.48,42.17-69.94,60.82-69.94c6.08,0,9.12,3.45,9.12,10.14c-15,36.89-53.11,170.08-20.88,170.08
			c7.3,0,11.76-7.91,13.58-11.96c1.21-2.03,4.86-1.62,4.46,0c-0.61,1.42-7.91,18.65-19.46,18.65c-53.11,0-5.07-141.09,6.49-175.76
			c0.81-2.64-1.42-3.45-4.66-0.61c-31.02,29.39-58.38,96.29-63.86,111.9c-5.88,17.23-10.95,28.18-16.83,28.18
			c-3.04,0-4.26-1.22-4.26-4.26c0,0,0-0.2,0.2-0.41c1.62-5.88,25.34-87.78,25.34-115.35c0-7.09-1.22-10.54-4.66-10.54
			c-12.37,0-46.02,57.37-59.6,104.4c-7.09,24.53-15.2,41.96-21.49,41.96c-2.84,0-4.26-1.42-4.26-4.46c0,0,0.2-0.61,0.61-1.62
			c4.46-13.38,46.83-143.12,2.43-143.12C-2546.48,196.67-2549.73,215.73-2546.08,215.73z"/>
		<path class="st3" d="M-2383.9,367.52c-7.88,0-14.05-3.01-18.33-8.96c-22.2-30.82,11.87-132.9,23.07-166.44l0.64-1.91
			c0.16-0.52,0.11-0.8,0.07-0.85c-0.18-0.07-1.23,0.08-2.85,1.5c-30.4,28.82-57.84,95.21-63.52,111.41
			c-6.1,17.88-11.23,28.96-17.93,28.96c-3.7,0-5.43-1.73-5.43-5.43c0-0.13,0.03-0.53,0.31-0.95l0.55-1.94
			c15.92-56.3,24.69-96.38,24.69-112.86c0-8.25-1.76-9.37-3.49-9.37c-11.28,0-44.61,55.54-58.47,103.55
			c-4.62,15.99-13.71,42.81-22.62,42.81c-3.5,0-5.43-2-5.43-5.63l0.06-0.37c0,0,0.21-0.63,0.63-1.69
			c3.66-10.99,35.43-108.73,16.42-135.1c-3.11-4.31-7.33-6.41-12.89-6.41c-11.57,0-15.78,8.23-16.8,10.76
			c-1.36,3.39-1.05,5.67-0.7,6h1.45l-0.44,1.37c-0.28,1.3-1.85,3.77-5.81,3.77c-3.47,0-5.71-2.64-5.71-6.73
			c0-4.75,2.85-10.27,7.45-14.41c4.03-3.63,11.29-7.97,22.99-7.97c7.5,0,13.75,2.64,18.56,7.84c11.73,12.67,12.67,37.85,11.28,57.24
			h0.04c21.48-43.32,39.93-65.28,54.86-65.28c12.32,0,13.74,12.93,13.74,22.66c0,6.14-1.64,19.17-4.3,34.34
			c17.07-31.89,41.26-69.16,61.1-69.16c4.7,0,10.3,1.96,10.3,11.31l-0.09,0.44c-13.54,33.3-44.61,141.56-29.21,164.45
			c1.82,2.71,4.19,4.02,7.24,4.02c6.47,0,10.62-7.06,12.51-11.27c1.16-1.95,3.64-2.45,5.25-1.78c1.13,0.47,1.69,1.47,1.42,2.55
			C-2365.32,352.73-2372.54,367.52-2383.9,367.52z M-2378.57,187.02c0.53,0,1.01,0.13,1.42,0.4c1.01,0.66,1.34,1.97,0.86,3.52
			l-0.64,1.93c-29.79,89.23-37.66,144.52-23.39,164.32c3.87,5.37,9.24,7.98,16.43,7.98c9.86,0,16.66-14.01,18.23-17.59
			c-0.19-0.06-0.52-0.11-0.91-0.05c-0.28,0.04-0.97,0.2-1.32,0.77c-2.06,4.6-6.8,12.53-14.59,12.53c-3.84,0-6.93-1.7-9.19-5.06
			c-16.59-24.66,16.45-135.67,28.89-166.42c-0.06-5.96-2.59-8.74-7.95-8.74c-15.01,0-35.68,23.97-59.78,69.32l-1.02-0.54v1.17h-3.24
			l0.25-1.38c2.86-15.96,4.64-29.78,4.64-36.08c0-14.24-3.41-20.31-11.4-20.31c-13.84,0-32.19,22.35-53.07,64.62l-0.32,0.65h-2.77
			v-1.17l-1.16-0.09c1.48-19.07,0.84-44.4-10.57-56.73c-4.35-4.7-10.02-7.08-16.84-7.08c-10.96,0-17.7,4-21.42,7.36
			c-4.92,4.44-6.67,9.6-6.67,12.67c0,1.32,0.33,4.38,3.36,4.38c1.77,0,2.67-0.63,3.11-1.17c-0.55-0.58-0.95-1.58-0.95-3.13
			c0-2.62,1.2-7.06,4.59-10.94c2.65-3.04,7.5-6.65,15.55-6.65c6.29,0,11.26,2.48,14.8,7.39c19.29,26.76-10.04,119.05-16.12,137.28
			c-0.28,0.7-0.46,1.2-0.55,1.44c0.05,2.23,0.92,3.1,3.08,3.1c3.91,0,11.59-10.77,20.36-41.12
			c13.35-46.23,47.41-105.25,60.73-105.25c5.14,0,5.84,5.92,5.84,11.71c0,22.52-15.52,80.78-24.78,113.5l-0.77,2.53
			c0.06,2.17,0.78,2.8,3.08,2.8c5.62,0,11.1-13.84,15.71-27.38c5.73-16.32,33.38-83.21,64.16-112.38
			C-2381.29,187.74-2379.8,187.02-2378.57,187.02z"/>
	</g>
	<g>
		<path class="st3" d="M-2332.8,242.49c3.24,0,4.66,2.03,4.66,5.07c0,0-18.04,46.22-18.04,86.16c0,1.82-1.42,2.84-3.04,2.84
			c-3.65,0-5.47-5.47-5.47-17.03C-2354.7,281.61-2346.18,242.49-2332.8,242.49z M-2317.6,204.38c0,5.27-9.93,19.06-9.93,19.06
			c-7.1,0-4.66-23.72,5.88-23.72C-2318.81,199.71-2317.6,201.34-2317.6,204.38z"/>
		<path class="st3" d="M-2349.22,337.73c-5.96,0-6.65-10.39-6.65-18.2c0-38.44,8.63-78.21,23.07-78.21c3.65,0,5.83,2.33,5.83,6.24
			l-0.08,0.43c-0.18,0.46-17.96,46.48-17.96,85.73C-2345.01,336.04-2346.78,337.73-2349.22,337.73z M-2332.8,243.66
			c-11.23,0-20.72,34.74-20.72,75.86c0,10.22,1.53,15.86,4.3,15.86c0.86,0,1.87-0.44,1.87-1.67c0-38.31,16.7-82.88,18.04-86.37
			C-2329.4,244.05-2331.33,243.66-2332.8,243.66z M-2326.93,224.61h-0.6c-3.21,0-5.21-3.43-5.21-8.96c0-3.84,0.99-8,2.66-11.12
			c2.06-3.87,5.06-5.99,8.43-5.99c2.39,0,5.23,1.01,5.23,5.84c0,5.49-9.12,18.3-10.16,19.74L-2326.93,224.61z M-2321.65,200.89
			c-3.16,0-5.2,2.58-6.36,4.75c-1.49,2.79-2.38,6.53-2.38,10.01c0,2.97,0.72,5.97,2.33,6.52c2.94-4.16,9.3-13.97,9.3-17.79
			C-2318.77,201.48-2319.92,200.89-2321.65,200.89z"/>
	</g>
	<g>
		<path class="st3" d="M-2266.71,346.69c-0.61,1.42-8.31,19.66-20.27,19.66c-16.62,0-22.91-19.66-22.91-45.41
			c0-60.61,26.76-141.09,41.56-141.09c2.43,0,3.45,1.42,3.45,4.06c0,0-33.05,78.25-33.05,145.55c0,16.62,4.06,30.21,11.76,30.21
			c6.89,0,13.18-8.92,15-12.97C-2270.16,344.46-2266.31,345.07-2266.71,346.69z"/>
		<path class="st3" d="M-2286.98,367.52c-15.53,0-24.08-16.54-24.08-46.58c0-61.41,26.88-142.27,42.73-142.27
			c1.73,0,4.62,0.68,4.62,5.23l-0.09,0.46c-0.33,0.78-32.95,78.81-32.95,145.1c0,17.36,4.26,29.03,10.59,29.03
			c5.94,0,12-8,13.93-12.28c0.89-1.95,3.27-2.52,4.97-1.92c1.3,0.45,1.98,1.53,1.7,2.69l-0.06,0.18l-1.08-0.46l1.06,0.51
			C-2267.7,351.97-2275.28,367.52-2286.98,367.52z M-2268.33,181.02c-13.01,0-40.38,78.39-40.38,139.92
			c0,16.52,2.82,44.24,21.73,44.24c10.25,0,17.43-14.93,19.05-18.63c-0.2-0.09-0.58-0.19-1.07-0.11c-0.31,0.05-0.87,0.21-1.11,0.74
			c-2.01,4.45-8.57,13.66-16.07,13.66c-7.86,0-12.93-12.32-12.93-31.38c0-64.98,31.07-141.03,33.04-145.78
			C-2266.12,181.47-2266.98,181.02-2268.33,181.02z"/>
	</g>
	<g>
		<path class="st3" d="M-2237.32,242.49c3.24,0,4.66,2.03,4.66,5.07c0,0-18.04,46.22-18.04,86.16c0,1.82-1.42,2.84-3.04,2.84
			c-3.65,0-5.47-5.47-5.47-17.03C-2259.21,281.61-2250.7,242.49-2237.32,242.49z M-2222.11,204.38c0,5.27-9.93,19.06-9.93,19.06
			c-7.1,0-4.66-23.72,5.88-23.72C-2223.33,199.71-2222.11,201.34-2222.11,204.38z"/>
		<path class="st3" d="M-2253.74,337.73c-5.96,0-6.65-10.39-6.65-18.2c0-38.44,8.63-78.21,23.07-78.21c3.65,0,5.83,2.33,5.83,6.24
			l-0.08,0.43c-0.18,0.46-17.96,46.48-17.96,85.73C-2249.52,336.04-2251.3,337.73-2253.74,337.73z M-2237.32,243.66
			c-11.23,0-20.72,34.74-20.72,75.86c0,10.22,1.53,15.86,4.3,15.86c0.86,0,1.87-0.44,1.87-1.67c0-38.31,16.7-82.88,18.04-86.37
			C-2233.91,244.05-2235.85,243.66-2237.32,243.66z M-2231.45,224.61h-0.6c-3.21,0-5.21-3.43-5.21-8.96c0-3.84,0.99-8,2.66-11.12
			c2.06-3.87,5.06-5.99,8.43-5.99c2.39,0,5.23,1.01,5.23,5.84c0,5.49-9.12,18.3-10.16,19.74L-2231.45,224.61z M-2226.17,200.89
			c-3.16,0-5.2,2.58-6.36,4.75c-1.49,2.79-2.38,6.53-2.38,10.01c0,2.97,0.72,5.97,2.33,6.52c2.94-4.16,9.3-13.97,9.3-17.79
			C-2223.29,201.48-2224.44,200.89-2226.17,200.89z"/>
	</g>
	<g>
		<path class="st3" d="M-2112.24,354.59c30.41,0,45-49.46,36.49-49.46c0,0,1.22-4.66,6.08-4.66c16.62,0-4.46,61.02-45.21,61.02
			c-78.05,0-35.07-181.64,51.49-181.64c8.92,0,7.5,10.34,7.5,10.34s-1.62-0.61-7.09-0.61
			C-2132.92,189.58-2167.99,354.59-2112.24,354.59z M-2057.71,230.73c0-27.57,6.69-46.02,16.83-46.02c2.64,0,4.86,2.03,4.86,5.27
			c0,0-14.8,13.79-14.8,42.57C-2050.81,234.38-2057.71,233.77-2057.71,230.73z"/>
		<path class="st3" d="M-2114.87,362.66c-13.95,0-24.74-5.54-32.09-16.47c-6.51-9.68-9.94-23.39-9.94-39.66
			c0-52.13,36.43-127.86,93.52-127.86c2.75,0,4.91,0.88,6.43,2.63c2.97,3.4,2.26,8.82,2.23,9.04l-0.2,1.45l-1.38-0.52l0,0
			c0,0-1.63-0.53-6.68-0.53c-45.48,0-75.66,71.55-75.66,118.87c0,13.04,2.23,23.93,6.46,31.49c4.57,8.17,11.27,12.31,19.94,12.31
			c24.34,0,37.72-32.76,37.72-43.62c0-1.61-0.26-2.47-0.47-2.9c-0.3-0.6-0.59-0.6-0.75-0.6h-1.52l0.39-1.47
			c0.5-1.92,2.65-5.54,7.22-5.54c2.27,0,4.1,0.98,5.3,2.84c1.05,1.64,1.58,3.91,1.58,6.76
			C-2062.79,325.32-2082.47,362.66-2114.87,362.66z M-2063.38,181.02c-55.66,0-91.18,74.34-91.18,125.51
			c0,15.8,3.3,29.06,9.54,38.35c6.88,10.24,17.02,15.43,30.14,15.43c30.95,0,49.74-35.71,49.74-51.42c0-2.35-0.42-4.25-1.21-5.49
			c-0.76-1.18-1.84-1.76-3.32-1.76c-2.62,0-3.93,1.62-4.52,2.74c0.53,0.32,0.97,0.82,1.3,1.48c0.47,0.96,0.72,2.29,0.72,3.94
			c0,11.81-13.78,45.96-40.06,45.96c-9.44,0-17.04-4.67-21.98-13.51c-4.42-7.91-6.76-19.19-6.76-32.63
			c0-48.26,31.11-121.22,78-121.22c2.97,0,4.86,0.18,6,0.35c0.01-1.55-0.23-4.18-1.75-5.92
			C-2059.79,181.61-2061.32,181.02-2063.38,181.02z M-2052.99,234.75c-2.85,0-5.88-1.41-5.88-4.02c0-28.67,7.06-47.19,18-47.19
			c3.44,0,6.04,2.77,6.04,6.44v0.51l-0.37,0.35c-0.14,0.14-14.42,13.83-14.42,41.71C-2049.64,233.62-2050.52,234.75-2052.99,234.75z
			 M-2040.88,185.89c-9.22,0-15.65,18.44-15.65,44.84c0,0.51,0.54,0.88,0.99,1.11c1.31,0.66,2.98,0.65,3.55,0.44
			c0.08-26.5,12.35-40.3,14.78-42.77C-2037.39,187.36-2038.85,185.89-2040.88,185.89z"/>
	</g>
	<g>
		<path class="st3" d="M-1968.71,236c0,0-12.36,12.57-12.36,40.95c0,1.01-0.41,1.62-1.02,1.62c-9.12,0-9.73-21.08-4.05-34.67
			c-19.67,17.23-47.84,75.21-47.84,86.97c0,1.22-1.22,2.43-2.84,2.43c-4.87,0-6.29-5.07-6.29-16.02c0-38.72,8.92-79.26,20.88-79.26
			c2.64,0,3.85,1.62,3.85,4.46c0,0-9.32,29.6-13.38,60.61h1.42c12.97-29.6,37.1-71.36,56.96-71.36
			C-1970.53,231.74-1968.71,233.77-1968.71,236z"/>
		<path class="st3" d="M-2036.82,334.48c-6.21,0-7.46-6.58-7.46-17.19c0-38.84,8.86-80.44,22.05-80.44c3.19,0,5.03,2.05,5.03,5.63
			l-0.06,0.35c-0.09,0.28-8.63,27.6-12.85,56.85c14.67-32.55,37.78-69.12,56.73-69.12c3.27,0,5.84,2.39,5.84,5.43v0.48l-0.33,0.34
			c-0.12,0.12-12.03,12.64-12.03,40.13c0,1.93-1.1,2.8-2.19,2.8c-2.36,0-4.39-1.19-5.89-3.43c-3.67-5.51-3.91-17.72-0.91-28.11
			c-19.13,20.26-43.93,72.03-43.93,82.67C-2032.81,332.83-2034.64,334.48-2036.82,334.48z M-2022.22,239.2
			c-10.31,0-19.71,37.22-19.71,78.09c0,12.36,1.96,14.84,5.11,14.84c1.02,0,1.66-0.75,1.66-1.26c0-11.88,27.9-70.02,48.24-87.85
			l3.81-3.34l-1.95,4.67c-4.31,10.32-4.77,24.93-0.96,30.65c1.02,1.54,2.25,2.32,3.73,2.38c0.03-0.09,0.05-0.24,0.05-0.44
			c0-26.11,10.2-38.98,12.33-41.37c-0.21-1.36-1.4-2.66-3.46-2.66c-17.21,0-40.47,35.49-55.89,70.66l-0.31,0.7h-3.52l0.17-1.32
			c3.86-29.52,12.58-58.1,13.37-60.63C-2019.6,239.58-2020.93,239.2-2022.22,239.2z"/>
	</g>
	<g>
		<path class="st3" d="M-1890.45,343.24c0,0,0.2-1.82,2.43-1.82c2.43,0,1.83,1.82,1.83,1.82s-5.47,15.81-13.58,15.81
			c-17.03,0-19.87-34.06-15-65.89h-1.83c-12.36,21.49-27.37,42.77-37.71,42.77c-34.46,0-3.85-97.51,14.19-97.51
			c2.84,0,3.65,1.82,3.65,4.46c0,0-20.68,52.1-20.68,75.62c0,5.88,1.22,10.34,4.86,10.34c9.93,0,38.31-52.1,47.23-71.76
			c5.07-11.56,10.34-18.65,16.62-18.65c3.04,0,4.06,1.82,4.06,4.46c0,0-20.68,40.95-20.68,89.2c0,16.42,2.64,19.87,6.08,19.87
			C-1893.29,351.96-1890.45,343.24-1890.45,343.24z"/>
		<path class="st3" d="M-1899.78,360.23c-3.9,0-7.27-1.62-10.01-4.82c-9.56-11.13-9.47-39.15-6.42-60.58
			c-16.26,28.06-29.08,42.29-38.1,42.29c-5.83,0-10.24-2.58-13.1-7.67c-2.47-4.38-3.72-10.53-3.72-18.3
			c0-28.07,17.33-73.88,31.01-73.88c2.2,0,4.82,0.98,4.82,5.63l-0.08,0.43c-0.21,0.52-20.6,52.16-20.6,75.18
			c0,4.18,0.64,9.17,3.69,9.17c8.66,0,36.32-49.36,46.17-71.08c5.78-13.19,11.41-19.34,17.69-19.34c1.95,0,5.23,0.73,5.23,5.63v0.28
			l-0.13,0.25c-0.21,0.41-20.55,41.27-20.55,88.67c0,16.76,2.8,18.69,4.91,18.69c4.48,0,7.07-6.97,7.37-7.82
			c0.18-1.02,1.11-2.72,3.57-2.72c1.22,0,2.1,0.37,2.62,1.1c0.71,0.99,0.36,2.14,0.32,2.27
			C-1885.32,344.3-1890.93,360.23-1899.78,360.23z M-1917.28,292h3.87l-0.21,1.35c-4.26,27.85-2.06,51.61,5.61,60.53
			c2.28,2.66,5.05,4,8.23,4c5.97,0,11.03-10.85,12.47-15.02c0.01-0.14-0.15-0.27-0.72-0.27c-1.15,0-1.26,0.7-1.26,0.78l-0.05,0.24
			c-0.13,0.39-3.18,9.53-9.63,9.53c-5.15,0-7.25-6.1-7.25-21.04c0-45.97,18.91-85.85,20.67-89.46c-0.07-2.5-1.21-3.02-2.88-3.02
			c-5.24,0-10.18,5.7-15.55,17.95c-6.97,15.36-36.73,72.47-48.31,72.47c-4.01,0-6.04-3.87-6.04-11.51
			c0-22.95,19.04-71.68,20.68-75.83c-0.05-2.56-0.95-3.07-2.47-3.07c-10.38,0-28.67,41.36-28.67,71.54c0,7.36,1.15,13.13,3.41,17.15
			c2.42,4.3,6.14,6.48,11.06,6.48c8.01,0,21.04-14.98,36.69-42.19L-1917.28,292z"/>
	</g>
</g>
<g>
	<g>
		<path class="st3" d="M-1391.76,241.58c0,0-0.61,2.84-4.66,2.84c-10.14,0-3.85-26.76,24.73-26.76c25.34,0,31.22,31.02,28.58,65.08
			c-0.2,0,2.03,0,2.03,0c16.83-34.06,36.89-65.28,54.13-65.28c9.73,0,12.57,8.51,12.57,21.49c0,6.49-1.82,20.48-4.66,36.29
			c0,0,2.03,0,1.83,0c18.85-35.48,42.17-69.94,60.82-69.94c6.08,0,9.12,3.45,9.12,10.14c-15,36.89-53.11,170.08-20.88,170.08
			c7.3,0,11.76-7.91,13.58-11.96c1.21-2.03,4.86-1.62,4.46,0c-0.61,1.42-7.91,18.65-19.46,18.65c-53.11,0-5.07-141.09,6.49-175.76
			c0.81-2.64-1.42-3.45-4.66-0.61c-31.02,29.39-58.38,96.29-63.86,111.9c-5.88,17.23-10.95,28.18-16.83,28.18
			c-3.04,0-4.26-1.22-4.26-4.26c0,0,0-0.2,0.2-0.41c1.62-5.88,25.34-87.78,25.34-115.35c0-7.09-1.22-10.54-4.66-10.54
			c-12.37,0-46.02,57.37-59.6,104.4c-7.09,24.53-15.2,41.96-21.49,41.96c-2.84,0-4.26-1.42-4.26-4.46c0,0,0.2-0.61,0.61-1.62
			c4.46-13.38,46.83-143.12,2.43-143.12C-1392.17,222.52-1395.41,241.58-1391.76,241.58z"/>
		<path class="st3" d="M-1229.58,393.37c-7.88,0-14.05-3.01-18.33-8.96c-22.2-30.82,11.87-132.9,23.07-166.44l0.64-1.91
			c0.16-0.52,0.11-0.8,0.07-0.85c-0.18-0.07-1.23,0.08-2.85,1.5c-30.4,28.82-57.84,95.21-63.52,111.41
			c-6.1,17.88-11.23,28.96-17.93,28.96c-3.7,0-5.43-1.73-5.43-5.43c0-0.13,0.03-0.53,0.31-0.95l0.55-1.94
			c15.92-56.3,24.69-96.38,24.69-112.86c0-8.25-1.76-9.37-3.49-9.37c-11.28,0-44.61,55.54-58.47,103.55
			c-4.62,15.99-13.71,42.81-22.62,42.81c-3.5,0-5.43-2-5.43-5.63l0.06-0.37c0,0,0.21-0.63,0.63-1.69
			c3.66-10.99,35.43-108.73,16.42-135.1c-3.11-4.31-7.33-6.41-12.89-6.41c-11.57,0-15.78,8.23-16.8,10.76
			c-1.36,3.39-1.05,5.67-0.7,6h1.45l-0.44,1.37c-0.28,1.3-1.85,3.77-5.81,3.77c-3.47,0-5.71-2.64-5.71-6.73
			c0-4.75,2.85-10.27,7.44-14.41c4.03-3.63,11.29-7.97,22.99-7.97c7.5,0,13.75,2.64,18.56,7.84c11.73,12.67,12.67,37.85,11.28,57.24
			h0.04c21.48-43.32,39.93-65.28,54.86-65.28c12.32,0,13.74,12.93,13.74,22.66c0,6.14-1.64,19.17-4.3,34.34
			c17.07-31.89,41.26-69.16,61.1-69.16c4.7,0,10.3,1.96,10.3,11.31l-0.09,0.44c-13.54,33.3-44.61,141.56-29.21,164.45
			c1.82,2.71,4.19,4.02,7.24,4.02c6.47,0,10.62-7.06,12.51-11.27c1.16-1.95,3.64-2.45,5.25-1.78c1.13,0.47,1.69,1.47,1.42,2.55
			C-1211,378.58-1218.23,393.37-1229.58,393.37z M-1224.26,212.87c0.53,0,1.01,0.13,1.42,0.4c1.01,0.66,1.34,1.97,0.86,3.52
			l-0.64,1.93c-29.79,89.23-37.66,144.52-23.39,164.32c3.87,5.37,9.24,7.98,16.43,7.98c9.86,0,16.66-14.01,18.23-17.59
			c-0.19-0.06-0.52-0.11-0.91-0.05c-0.28,0.04-0.97,0.2-1.32,0.77c-2.06,4.6-6.8,12.53-14.59,12.53c-3.84,0-6.93-1.7-9.19-5.06
			c-16.59-24.66,16.45-135.67,28.89-166.42c-0.06-5.96-2.59-8.74-7.95-8.74c-15.01,0-35.68,23.97-59.78,69.32l-1.02-0.54v1.17h-3.24
			l0.25-1.38c2.86-15.96,4.64-29.78,4.64-36.08c0-14.24-3.41-20.31-11.4-20.31c-13.84,0-32.19,22.35-53.07,64.62l-0.32,0.65h-2.77
			v-1.17l-1.15-0.09c1.48-19.07,0.84-44.4-10.58-56.73c-4.35-4.7-10.02-7.08-16.84-7.08c-10.96,0-17.7,4-21.42,7.36
			c-4.92,4.44-6.67,9.6-6.67,12.67c0,1.32,0.33,4.38,3.36,4.38c1.77,0,2.66-0.63,3.11-1.17c-0.55-0.58-0.95-1.58-0.95-3.13
			c0-2.62,1.2-7.06,4.59-10.94c2.65-3.04,7.5-6.65,15.55-6.65c6.29,0,11.26,2.48,14.8,7.39c19.29,26.76-10.04,119.05-16.12,137.28
			c-0.28,0.7-0.46,1.2-0.55,1.44c0.05,2.23,0.92,3.1,3.08,3.1c3.91,0,11.59-10.77,20.36-41.12
			c13.35-46.23,47.41-105.25,60.73-105.25c5.14,0,5.84,5.92,5.84,11.71c0,22.52-15.52,80.78-24.78,113.5l-0.77,2.53
			c0.06,2.17,0.78,2.8,3.08,2.8c5.62,0,11.1-13.84,15.71-27.38c5.73-16.32,33.38-83.21,64.16-112.38
			C-1226.98,213.59-1225.48,212.87-1224.26,212.87z"/>
	</g>
	<g>
		<path class="st3" d="M-1178.49,268.34c3.24,0,4.66,2.03,4.66,5.07c0,0-18.04,46.22-18.04,86.16c0,1.82-1.42,2.84-3.04,2.84
			c-3.65,0-5.47-5.47-5.47-17.03C-1200.38,307.46-1191.87,268.34-1178.49,268.34z M-1163.28,230.23c0,5.27-9.93,19.06-9.93,19.06
			c-7.1,0-4.66-23.72,5.88-23.72C-1164.5,225.56-1163.28,227.18-1163.28,230.23z"/>
		<path class="st3" d="M-1194.91,363.57c-5.96,0-6.65-10.39-6.65-18.2c0-38.44,8.63-78.21,23.07-78.21c3.65,0,5.83,2.33,5.83,6.24
			l-0.08,0.43c-0.18,0.46-17.96,46.48-17.96,85.73C-1190.69,361.89-1192.47,363.57-1194.91,363.57z M-1178.49,269.51
			c-11.23,0-20.72,34.74-20.72,75.86c0,10.22,1.53,15.86,4.3,15.86c0.86,0,1.87-0.44,1.87-1.67c0-38.31,16.7-82.88,18.04-86.37
			C-1175.08,269.9-1177.02,269.51-1178.49,269.51z M-1172.62,250.45h-0.6c-3.21,0-5.21-3.43-5.21-8.96c0-3.84,0.99-8,2.66-11.12
			c2.06-3.87,5.06-5.99,8.43-5.99c2.39,0,5.23,1.01,5.23,5.84c0,5.49-9.12,18.3-10.16,19.74L-1172.62,250.45z M-1167.34,226.74
			c-3.16,0-5.2,2.58-6.36,4.75c-1.49,2.79-2.38,6.53-2.38,10.01c0,2.97,0.72,5.97,2.33,6.52c2.94-4.16,9.3-13.97,9.3-17.79
			C-1164.46,227.33-1165.61,226.74-1167.34,226.74z"/>
	</g>
	<g>
		<path class="st3" d="M-1112.4,372.54c-0.61,1.42-8.31,19.66-20.27,19.66c-16.62,0-22.91-19.66-22.91-45.41
			c0-60.61,26.76-141.09,41.56-141.09c2.43,0,3.45,1.42,3.45,4.06c0,0-33.05,78.25-33.05,145.55c0,16.62,4.06,30.21,11.76,30.21
			c6.89,0,13.18-8.92,15-12.97C-1115.85,370.31-1112,370.91-1112.4,372.54z"/>
		<path class="st3" d="M-1132.67,393.37c-15.53,0-24.08-16.54-24.08-46.58c0-61.41,26.88-142.27,42.73-142.27
			c1.73,0,4.62,0.68,4.62,5.23l-0.09,0.46c-0.33,0.78-32.95,78.81-32.95,145.1c0,17.36,4.26,29.03,10.59,29.03
			c5.94,0,12-8,13.93-12.28c0.89-1.95,3.27-2.52,4.97-1.92c1.3,0.45,1.98,1.53,1.7,2.69l-0.06,0.18l-1.08-0.46l1.06,0.51
			C-1113.39,377.81-1120.97,393.37-1132.67,393.37z M-1114.02,206.87c-13.01,0-40.38,78.39-40.38,139.92
			c0,16.52,2.82,44.24,21.73,44.24c10.25,0,17.43-14.93,19.05-18.63c-0.2-0.09-0.58-0.19-1.07-0.11c-0.31,0.05-0.87,0.21-1.11,0.74
			c-2.01,4.45-8.57,13.66-16.07,13.66c-7.86,0-12.93-12.32-12.93-31.38c0-64.98,31.07-141.03,33.04-145.78
			C-1111.81,207.32-1112.66,206.87-1114.02,206.87z"/>
	</g>
	<g>
		<path class="st3" d="M-1083,268.34c3.24,0,4.66,2.03,4.66,5.07c0,0-18.04,46.22-18.04,86.16c0,1.82-1.42,2.84-3.04,2.84
			c-3.65,0-5.47-5.47-5.47-17.03C-1104.9,307.46-1096.38,268.34-1083,268.34z M-1067.8,230.23c0,5.27-9.93,19.06-9.93,19.06
			c-7.1,0-4.66-23.72,5.88-23.72C-1069.02,225.56-1067.8,227.18-1067.8,230.23z"/>
		<path class="st3" d="M-1099.43,363.57c-5.96,0-6.65-10.39-6.65-18.2c0-38.44,8.63-78.21,23.07-78.21c3.65,0,5.83,2.33,5.83,6.24
			l-0.08,0.43c-0.18,0.46-17.96,46.48-17.96,85.73C-1095.21,361.89-1096.98,363.57-1099.43,363.57z M-1083,269.51
			c-11.23,0-20.72,34.74-20.72,75.86c0,10.22,1.53,15.86,4.3,15.86c0.86,0,1.87-0.44,1.87-1.67c0-38.31,16.7-82.88,18.04-86.37
			C-1079.6,269.9-1081.54,269.51-1083,269.51z M-1077.13,250.45h-0.6c-3.21,0-5.21-3.43-5.21-8.96c0-3.84,0.99-8,2.66-11.12
			c2.06-3.87,5.06-5.99,8.43-5.99c2.39,0,5.23,1.01,5.23,5.84c0,5.49-9.12,18.3-10.16,19.74L-1077.13,250.45z M-1071.86,226.74
			c-3.16,0-5.2,2.58-6.36,4.75c-1.49,2.79-2.38,6.53-2.38,10.01c0,2.97,0.72,5.97,2.33,6.52c2.94-4.16,9.3-13.97,9.3-17.79
			C-1068.97,227.33-1070.13,226.74-1071.86,226.74z"/>
	</g>
	<g>
		<path class="st3" d="M-957.93,380.44c30.41,0,45-49.46,36.49-49.46c0,0,1.22-4.66,6.08-4.66c16.62,0-4.46,61.02-45.21,61.02
			c-78.05,0-35.07-181.64,51.49-181.64c8.92,0,7.5,10.34,7.5,10.34s-1.62-0.61-7.09-0.61
			C-978.6,215.43-1013.67,380.44-957.93,380.44z M-903.39,256.58c0-27.57,6.69-46.02,16.83-46.02c2.64,0,4.86,2.03,4.86,5.27
			c0,0-14.8,13.79-14.8,42.57C-896.5,260.23-903.39,259.62-903.39,256.58z"/>
		<path class="st3" d="M-960.56,388.51c-13.95,0-24.74-5.54-32.09-16.47c-6.51-9.68-9.94-23.39-9.94-39.66
			c0-52.13,36.43-127.86,93.52-127.86c2.75,0,4.91,0.88,6.43,2.63c2.97,3.4,2.26,8.82,2.23,9.04l-0.2,1.45l-1.37-0.52l0,0
			c0,0-1.63-0.53-6.68-0.53c-45.48,0-75.66,71.55-75.66,118.87c0,13.04,2.23,23.93,6.46,31.49c4.57,8.17,11.27,12.31,19.94,12.31
			c24.34,0,37.72-32.76,37.72-43.62c0-1.61-0.26-2.47-0.47-2.9c-0.3-0.6-0.59-0.6-0.75-0.6h-1.52l0.38-1.47
			c0.5-1.92,2.65-5.54,7.22-5.54c2.27,0,4.1,0.98,5.3,2.84c1.05,1.64,1.58,3.91,1.58,6.76
			C-908.47,351.16-928.15,388.51-960.56,388.51z M-909.07,206.87c-55.66,0-91.17,74.34-91.17,125.51c0,15.8,3.3,29.06,9.54,38.35
			c6.88,10.24,17.02,15.43,30.14,15.43c30.95,0,49.74-35.71,49.74-51.42c0-2.35-0.42-4.25-1.21-5.49c-0.76-1.18-1.84-1.76-3.32-1.76
			c-2.62,0-3.93,1.62-4.52,2.74c0.53,0.32,0.97,0.82,1.3,1.48c0.47,0.96,0.71,2.29,0.71,3.94c0,11.81-13.78,45.96-40.06,45.96
			c-9.44,0-17.04-4.67-21.98-13.51c-4.42-7.91-6.76-19.19-6.76-32.63c0-48.26,31.11-121.22,78-121.22c2.97,0,4.86,0.18,6,0.35
			c0.01-1.55-0.23-4.18-1.75-5.92C-905.48,207.46-907,206.87-909.07,206.87z M-898.68,260.6c-2.85,0-5.88-1.41-5.88-4.02
			c0-28.67,7.06-47.19,18-47.19c3.44,0,6.04,2.77,6.04,6.44v0.51l-0.37,0.35c-0.14,0.14-14.42,13.83-14.42,41.71
			C-895.33,259.47-896.21,260.6-898.68,260.6z M-886.57,211.74c-9.22,0-15.65,18.44-15.65,44.84c0,0.51,0.54,0.88,0.99,1.11
			c1.31,0.66,2.98,0.65,3.55,0.44c0.08-26.5,12.35-40.3,14.78-42.77C-883.08,213.2-884.54,211.74-886.57,211.74z"/>
	</g>
	<g>
		<path class="st3" d="M-814.39,261.85c0,0-12.36,12.57-12.36,40.95c0,1.01-0.41,1.62-1.02,1.62c-9.12,0-9.73-21.08-4.05-34.67
			c-19.67,17.23-47.84,75.21-47.84,86.97c0,1.22-1.22,2.43-2.84,2.43c-4.87,0-6.29-5.07-6.29-16.02c0-38.72,8.92-79.26,20.88-79.26
			c2.64,0,3.85,1.62,3.85,4.46c0,0-9.32,29.6-13.38,60.61h1.42c12.97-29.6,37.1-71.36,56.96-71.36
			C-816.22,257.59-814.39,259.62-814.39,261.85z"/>
		<path class="st3" d="M-882.51,360.33c-6.21,0-7.46-6.58-7.46-17.19c0-38.84,8.86-80.44,22.05-80.44c3.19,0,5.03,2.05,5.03,5.63
			l-0.05,0.35c-0.09,0.28-8.63,27.6-12.85,56.85c14.67-32.55,37.78-69.12,56.73-69.12c3.27,0,5.84,2.39,5.84,5.43v0.48l-0.33,0.34
			c-0.12,0.12-12.03,12.64-12.03,40.13c0,1.93-1.1,2.8-2.19,2.8c-2.36,0-4.39-1.19-5.89-3.43c-3.67-5.51-3.91-17.72-0.91-28.11
			c-19.13,20.26-43.93,72.03-43.93,82.67C-878.5,358.68-880.33,360.33-882.51,360.33z M-867.91,265.05
			c-10.31,0-19.71,37.22-19.71,78.09c0,12.36,1.96,14.84,5.11,14.84c1.02,0,1.66-0.75,1.66-1.26c0-11.88,27.9-70.02,48.24-87.85
			l3.81-3.34l-1.95,4.67c-4.31,10.32-4.77,24.93-0.96,30.65c1.02,1.54,2.25,2.32,3.73,2.38c0.03-0.09,0.05-0.24,0.05-0.44
			c0-26.11,10.2-38.98,12.33-41.37c-0.21-1.36-1.4-2.66-3.46-2.66c-17.21,0-40.47,35.49-55.89,70.66l-0.31,0.7h-3.52l0.17-1.32
			c3.86-29.52,12.58-58.1,13.37-60.63C-865.29,265.43-866.61,265.05-867.91,265.05z"/>
	</g>
	<g>
		<path class="st3" d="M-736.14,369.09c0,0,0.2-1.82,2.43-1.82c2.43,0,1.83,1.82,1.83,1.82s-5.47,15.81-13.58,15.81
			c-17.03,0-19.87-34.06-15-65.89h-1.83c-12.36,21.49-27.37,42.77-37.71,42.77c-34.46,0-3.85-97.51,14.19-97.51
			c2.84,0,3.65,1.82,3.65,4.46c0,0-20.68,52.1-20.68,75.62c0,5.88,1.22,10.34,4.86,10.34c9.93,0,38.31-52.1,47.23-71.76
			c5.07-11.56,10.34-18.65,16.62-18.65c3.04,0,4.06,1.82,4.06,4.46c0,0-20.68,40.95-20.68,89.2c0,16.42,2.64,19.87,6.08,19.87
			C-738.98,377.81-736.14,369.09-736.14,369.09z"/>
		<path class="st3" d="M-745.46,386.08c-3.9,0-7.27-1.62-10.01-4.82c-9.56-11.13-9.47-39.15-6.42-60.58
			c-16.26,28.06-29.08,42.29-38.1,42.29c-5.83,0-10.24-2.58-13.1-7.67c-2.47-4.38-3.72-10.53-3.72-18.3
			c0-28.07,17.33-73.88,31.01-73.88c2.2,0,4.82,0.98,4.82,5.63l-0.08,0.43c-0.21,0.52-20.6,52.16-20.6,75.18
			c0,4.18,0.64,9.17,3.69,9.17c8.66,0,36.32-49.36,46.17-71.08c5.78-13.19,11.41-19.34,17.69-19.34c1.95,0,5.23,0.73,5.23,5.63v0.28
			l-0.13,0.25c-0.21,0.41-20.55,41.27-20.55,88.67c0,16.76,2.8,18.69,4.91,18.69c4.48,0,7.07-6.97,7.37-7.82
			c0.18-1.02,1.11-2.72,3.57-2.72c1.22,0,2.1,0.37,2.62,1.1c0.71,0.99,0.36,2.14,0.32,2.27
			C-731.01,370.15-736.62,386.08-745.46,386.08z M-762.97,317.84h3.87l-0.21,1.35c-4.26,27.85-2.06,51.61,5.61,60.53
			c2.28,2.66,5.05,4,8.23,4c5.97,0,11.03-10.85,12.47-15.02c0.01-0.14-0.15-0.27-0.72-0.27c-1.15,0-1.26,0.7-1.26,0.78l-0.05,0.24
			c-0.13,0.39-3.18,9.53-9.63,9.53c-5.15,0-7.25-6.1-7.25-21.04c0-45.97,18.91-85.85,20.67-89.46c-0.07-2.5-1.21-3.02-2.88-3.02
			c-5.24,0-10.18,5.7-15.55,17.95c-6.97,15.36-36.73,72.47-48.31,72.47c-4.01,0-6.04-3.87-6.04-11.51
			c0-22.95,19.04-71.68,20.68-75.83c-0.05-2.56-0.95-3.07-2.47-3.07c-10.38,0-28.67,41.36-28.67,71.54c0,7.36,1.15,13.13,3.41,17.15
			c2.42,4.3,6.14,6.48,11.06,6.48c8.01,0,21.04-14.98,36.69-42.19L-762.97,317.84z"/>
	</g>
</g>
<g>
	<g>
		<path class="st2" d="M-2203.66,556.65c0,7.62-6.17,13.77-13.78,13.77c-7.6,0-13.77-6.16-13.77-13.77
			c0-7.61,6.17-13.78,13.77-13.78C-2209.83,542.87-2203.66,549.04-2203.66,556.65z"/>
	</g>
</g>
<g>
	<g>
		<path class="st0" d="M-2373.86,434.06c0-1.01,0.87-1.95,2.28-1.95h12.69c7.92,0,14.23,3.89,14.23,14.5v0.6
			c0,10.54-6.38,14.57-14.5,14.57h-9.06v17.39c0,1.34-1.41,2.01-2.82,2.01c-1.41,0-2.82-0.67-2.82-2.01V434.06z M-2368.22,437.22
			v19.87h9.06c5.51,0,8.86-3.09,8.86-9.53v-0.8c0-6.51-3.36-9.53-8.86-9.53H-2368.22z"/>
	</g>
	<g>
		<path class="st0" d="M-2344.12,478.84c0-0.2,0.07-0.34,0.13-0.54l13.7-44.64c0.4-1.34,1.95-1.95,3.49-1.95
			c1.54,0,3.09,0.67,3.49,1.95l13.69,44.64c0,0.2,0.07,0.34,0.07,0.47c0,1.34-1.88,2.42-3.49,2.42c-0.94,0-1.74-0.4-2.01-1.28
			l-2.95-10h-17.66l-2.95,10c-0.27,0.87-1.07,1.28-2.08,1.28C-2342.17,481.19-2344.12,480.25-2344.12,478.84z M-2319.34,465.28
			l-7.45-25.24l-7.58,25.24H-2319.34z"/>
	</g>
	<g>
		<path class="st0" d="M-2282.82,468.16c0-13.49-22.09-7.38-22.09-23.7c0-9.87,8.12-12.49,14.77-12.49c4.77,0,11.75,1.41,11.75,4.43
			c0,1.07-0.87,3.09-2.42,3.09c-1.54,0-3.49-2.55-9.33-2.55c-4.97,0-9.13,1.81-9.13,6.98c0,11.35,22.09,5.44,22.09,23.7
			c0,9.6-6.18,14.1-14.7,14.1c-8.66,0-14.23-4.7-14.23-7.58c0-1.34,1.21-3.09,2.48-3.09c2.01,0,3.56,5.44,11.48,5.44
			C-2286.51,476.49-2282.82,473.74-2282.82,468.16z"/>
	</g>
	<g>
		<path class="st0" d="M-2244.41,432.11c1.34,0,2.01,1.28,2.01,2.55c0,1.34-0.67,2.69-2.01,2.69h-10.81v41.82
			c0,1.34-1.41,2.01-2.82,2.01c-1.41,0-2.82-0.67-2.82-2.01v-41.82h-10.88c-1.28,0-2.01-1.27-2.01-2.69c0-1.21,0.67-2.55,2.01-2.55
			H-2244.41z"/>
	</g>
	<g>
		<path class="st0" d="M-2231.05,454.27h10.47c1.21,0,1.95,1.14,1.95,2.42c0,1.07-0.6,2.28-1.95,2.28h-10.47v17.12h20.81
			c1.21,0,1.95,1.21,1.95,2.62c0,1.21-0.6,2.48-1.95,2.48h-23.9c-1.28,0-2.55-0.67-2.55-2.01v-45.05c0-1.34,1.28-2.01,2.55-2.01
			h23.9c1.34,0,1.95,1.28,1.95,2.48c0,1.41-0.74,2.62-1.95,2.62h-20.81V454.27z"/>
	</g>
	<g>
		<path class="st0" d="M-2199.62,481.19c-1.28,0-2.55-0.67-2.55-2.01v-45.11c0-1.34,1.41-1.95,2.82-1.95c1.41,0,2.82,0.6,2.82,1.95
			v42.02h18.33c1.21,0,1.81,1.28,1.81,2.55c0,1.27-0.6,2.55-1.81,2.55H-2199.62z"/>
	</g>
	<g>
		<path class="st0" d="M-2165.11,454.27h10.47c1.21,0,1.95,1.14,1.95,2.42c0,1.07-0.6,2.28-1.95,2.28h-10.47v17.12h20.81
			c1.21,0,1.95,1.21,1.95,2.62c0,1.21-0.6,2.48-1.95,2.48h-23.9c-1.28,0-2.55-0.67-2.55-2.01v-45.05c0-1.34,1.27-2.01,2.55-2.01
			h23.9c1.34,0,1.95,1.28,1.95,2.48c0,1.41-0.74,2.62-1.95,2.62h-20.81V454.27z"/>
	</g>
	<g>
		<path class="st0" d="M-2136.24,434.06c0-1.01,0.81-1.88,2.01-1.95h12.29c8.12,0,14.9,3.22,14.9,13.43c0,8.19-4.36,11.95-10,13.09
			l9.94,18.87c0.2,0.33,0.27,0.67,0.27,0.94c0,1.48-1.74,2.89-3.35,2.89c-1.14,0-1.95-1.07-2.55-2.22l-10.14-19.67h-7.72v19.74
			c0,1.34-1.41,2.01-2.82,2.01s-2.82-0.67-2.82-2.01V434.06z M-2130.6,437.22v17.52h8.66c5.57,0,9.26-2.42,9.26-8.79
			c0-6.31-3.69-8.73-9.26-8.73H-2130.6z"/>
	</g>
	<g>
		<path class="st0" d="M-2099.64,424.86c-0.27,0.14-0.47,0.27-0.74,0.27c-1.14,0-2.01-1.21-2.01-2.28c0-0.6,0.27-1.14,0.87-1.48
			l7.86-4.16c0.2-0.07,0.47-0.14,0.67-0.14c1.14,0,1.88,1.21,1.88,2.28c0,0.6-0.27,1.27-0.94,1.61L-2099.64,424.86z
			 M-2099.77,434.06c0-1.34,1.41-1.95,2.82-1.95c1.41,0,2.82,0.6,2.82,1.95v45.11c0,1.34-1.41,2.01-2.82,2.01
			c-1.41,0-2.82-0.67-2.82-2.01V434.06z"/>
	</g>
	<g>
		<path class="st0" d="M-2088.23,478.84c0-0.2,0.07-0.34,0.14-0.54l13.69-44.64c0.4-1.34,1.95-1.95,3.49-1.95s3.09,0.67,3.49,1.95
			l13.7,44.64c0,0.2,0.07,0.34,0.07,0.47c0,1.34-1.88,2.42-3.49,2.42c-0.94,0-1.75-0.4-2.01-1.28l-2.95-10h-17.66l-2.95,10
			c-0.27,0.87-1.07,1.28-2.08,1.28C-2086.28,481.19-2088.23,480.25-2088.23,478.84z M-2063.45,465.28l-7.45-25.24l-7.59,25.24
			H-2063.45z"/>
	</g>
</g>
<g>
	<g>
		<path class="st2" d="M-2117.07-194.43h-204.6c-4.61,0-7.86,2.94-7.86,8.25v310.56c0,3.57,1.48,6.85,4.23,8.51
			c1.22,0.74,2.42,1.1,3.75,1.1c1.67,0,3.28-0.58,4.7-1.71l97.67-77.83l97.36,77.81c2.56,2.05,5.73,2.28,8.47,0.63
			c2.75-1.66,4.32-4.94,4.32-8.51v-310.56C-2109.03-191.49-2112.46-194.43-2117.07-194.43z"/>
	</g>
</g>
<g>
	<g>
		<g>
			<path class="st2" d="M-2428.64,448.31h-56.76c-0.87,0-1.58-2.1-1.58-3.43c0-1.33,0.71-3.43,1.58-3.43h56.76
				c0.87,0,1.58,2.1,1.58,3.43C-2427.06,446.21-2427.77,448.31-2428.64,448.31z"/>
		</g>
	</g>
	<g>
		<g>
			<path class="st2" d="M-2428.64,468.87h-40.99c-0.87,0-1.58-2.1-1.58-3.43c0-1.33,0.71-3.43,1.58-3.43h40.99
				c0.87,0,1.58,2.1,1.58,3.43C-2427.06,466.78-2427.77,468.87-2428.64,468.87z"/>
		</g>
	</g>
</g>
<g>
	<g>
		<g>
			<path class="st2" d="M-2002.17,448.31h56.76c0.87,0,1.58-2.1,1.58-3.43c0-1.33-0.71-3.43-1.58-3.43h-56.76
				c-0.87,0-1.58,2.1-1.58,3.43C-2003.75,446.21-2003.04,448.31-2002.17,448.31z"/>
		</g>
	</g>
	<g>
		<g>
			<path class="st2" d="M-2002.17,468.87h40.99c0.87,0,1.58-2.1,1.58-3.43c0-1.33-0.71-3.43-1.58-3.43h-40.99
				c-0.87,0-1.58,2.1-1.58,3.43C-2003.75,466.78-2003.04,468.87-2002.17,468.87z"/>
		</g>
	</g>
</g>
<g>
	<g>
		<g>
			<path class="st0" d="M-1223.97,508.99c0-1.01,0.87-1.95,2.28-1.95h12.69c7.92,0,14.23,3.89,14.23,14.5v0.6
				c0,10.54-6.38,14.57-14.5,14.57h-9.06v17.39c0,1.34-1.41,2.01-2.82,2.01c-1.41,0-2.82-0.67-2.82-2.01V508.99z M-1218.33,512.14
				v19.87h9.06c5.51,0,8.86-3.09,8.86-9.53v-0.8c0-6.51-3.36-9.53-8.86-9.53H-1218.33z"/>
		</g>
		<g>
			<path class="st0" d="M-1194.22,553.76c0-0.2,0.07-0.34,0.13-0.54l13.7-44.64c0.4-1.34,1.95-1.95,3.49-1.95
				c1.54,0,3.09,0.67,3.49,1.95l13.69,44.64c0,0.2,0.07,0.34,0.07,0.47c0,1.34-1.88,2.42-3.49,2.42c-0.94,0-1.74-0.4-2.01-1.28
				l-2.95-10h-17.66l-2.95,10c-0.27,0.87-1.07,1.28-2.08,1.28C-1192.27,556.11-1194.22,555.17-1194.22,553.76z M-1169.45,540.2
				l-7.45-25.24l-7.58,25.24H-1169.45z"/>
		</g>
		<g>
			<path class="st0" d="M-1132.92,543.09c0-13.49-22.09-7.38-22.09-23.7c0-9.87,8.12-12.49,14.77-12.49
				c4.77,0,11.75,1.41,11.75,4.43c0,1.07-0.87,3.09-2.42,3.09c-1.54,0-3.49-2.55-9.33-2.55c-4.97,0-9.13,1.81-9.13,6.98
				c0,11.35,22.09,5.44,22.09,23.7c0,9.6-6.18,14.1-14.7,14.1c-8.66,0-14.23-4.7-14.23-7.58c0-1.34,1.21-3.09,2.48-3.09
				c2.01,0,3.56,5.44,11.48,5.44C-1136.61,551.41-1132.92,548.66-1132.92,543.09z"/>
		</g>
		<g>
			<path class="st0" d="M-1094.52,507.04c1.34,0,2.01,1.28,2.01,2.55c0,1.34-0.67,2.69-2.01,2.69h-10.81v41.82
				c0,1.34-1.41,2.01-2.82,2.01c-1.41,0-2.82-0.67-2.82-2.01v-41.82h-10.88c-1.28,0-2.01-1.27-2.01-2.69c0-1.21,0.67-2.55,2.01-2.55
				H-1094.52z"/>
		</g>
		<g>
			<path class="st0" d="M-1081.15,529.19h10.47c1.21,0,1.95,1.14,1.95,2.42c0,1.07-0.6,2.28-1.95,2.28h-10.47v17.12h20.81
				c1.21,0,1.95,1.21,1.95,2.62c0,1.21-0.6,2.48-1.95,2.48h-23.9c-1.28,0-2.55-0.67-2.55-2.01v-45.05c0-1.34,1.28-2.01,2.55-2.01
				h23.9c1.34,0,1.95,1.28,1.95,2.48c0,1.41-0.74,2.62-1.95,2.62h-20.81V529.19z"/>
		</g>
		<g>
			<path class="st0" d="M-1049.72,556.11c-1.28,0-2.55-0.67-2.55-2.01v-45.11c0-1.34,1.41-1.95,2.82-1.95c1.41,0,2.82,0.6,2.82,1.95
				v42.02h18.33c1.21,0,1.81,1.28,1.81,2.55c0,1.27-0.6,2.55-1.81,2.55H-1049.72z"/>
		</g>
		<g>
			<path class="st0" d="M-1015.21,529.19h10.47c1.21,0,1.95,1.14,1.95,2.42c0,1.07-0.6,2.28-1.95,2.28h-10.47v17.12h20.81
				c1.21,0,1.95,1.21,1.95,2.62c0,1.21-0.6,2.48-1.95,2.48h-23.9c-1.28,0-2.55-0.67-2.55-2.01v-45.05c0-1.34,1.27-2.01,2.55-2.01
				h23.9c1.34,0,1.95,1.28,1.95,2.48c0,1.41-0.74,2.62-1.95,2.62h-20.81V529.19z"/>
		</g>
		<g>
			<path class="st0" d="M-986.34,508.99c0-1.01,0.81-1.88,2.01-1.95h12.29c8.12,0,14.9,3.22,14.9,13.43c0,8.19-4.36,11.95-10,13.09
				l9.94,18.87c0.2,0.33,0.27,0.67,0.27,0.94c0,1.48-1.74,2.89-3.35,2.89c-1.14,0-1.95-1.07-2.55-2.22l-10.14-19.67h-7.72v19.74
				c0,1.34-1.41,2.01-2.82,2.01c-1.41,0-2.82-0.67-2.82-2.01V508.99z M-980.7,512.14v17.52h8.66c5.57,0,9.26-2.42,9.26-8.79
				c0-6.31-3.69-8.73-9.26-8.73H-980.7z"/>
		</g>
		<g>
			<path class="st0" d="M-949.75,499.79c-0.27,0.14-0.47,0.27-0.74,0.27c-1.14,0-2.01-1.21-2.01-2.28c0-0.6,0.27-1.14,0.87-1.48
				l7.86-4.16c0.2-0.07,0.47-0.14,0.67-0.14c1.14,0,1.88,1.21,1.88,2.28c0,0.6-0.27,1.27-0.94,1.61L-949.75,499.79z M-949.88,508.99
				c0-1.34,1.41-1.95,2.82-1.95c1.41,0,2.82,0.6,2.82,1.95v45.11c0,1.34-1.41,2.01-2.82,2.01c-1.41,0-2.82-0.67-2.82-2.01V508.99z"
				/>
		</g>
		<g>
			<path class="st0" d="M-938.33,553.76c0-0.2,0.07-0.34,0.14-0.54l13.69-44.64c0.4-1.34,1.95-1.95,3.49-1.95
				c1.54,0,3.09,0.67,3.49,1.95l13.7,44.64c0,0.2,0.07,0.34,0.07,0.47c0,1.34-1.88,2.42-3.49,2.42c-0.94,0-1.75-0.4-2.01-1.28
				l-2.95-10h-17.66l-2.95,10c-0.27,0.87-1.07,1.28-2.08,1.28C-936.38,556.11-938.33,555.17-938.33,553.76z M-913.56,540.2
				l-7.45-25.24l-7.59,25.24H-913.56z"/>
		</g>
	</g>
	<g>
		<g>
			<g>
				<path class="st2" d="M-1278.74,523.24h-56.76c-0.87,0-1.58-2.1-1.58-3.43c0-1.33,0.71-3.43,1.58-3.43h56.76
					c0.87,0,1.58,2.1,1.58,3.43C-1277.16,521.14-1277.87,523.24-1278.74,523.24z"/>
			</g>
		</g>
		<g>
			<g>
				<path class="st2" d="M-1278.74,543.8h-40.99c-0.87,0-1.58-2.1-1.58-3.43c0-1.33,0.71-3.43,1.58-3.43h40.99
					c0.87,0,1.58,2.1,1.58,3.43C-1277.16,541.7-1277.87,543.8-1278.74,543.8z"/>
			</g>
		</g>
	</g>
	<g>
		<g>
			<g>
				<path class="st2" d="M-852.27,523.24h56.76c0.87,0,1.58-2.1,1.58-3.43c0-1.33-0.71-3.43-1.58-3.43h-56.76
					c-0.87,0-1.58,2.1-1.58,3.43C-853.85,521.14-853.15,523.24-852.27,523.24z"/>
			</g>
		</g>
		<g>
			<g>
				<path class="st2" d="M-852.27,543.8h40.99c0.87,0,1.58-2.1,1.58-3.43c0-1.33-0.71-3.43-1.58-3.43h-40.99
					c-0.87,0-1.58,2.1-1.58,3.43C-853.85,541.7-853.15,543.8-852.27,543.8z"/>
			</g>
		</g>
	</g>
</g>
<g>
	<g>
		<path class="st1" d="M-2179.13-58.04c0,0-5.5,44.55-16.65,52.72c-9.14,6.7-36.81,7.48-45.33,0
			c-10.38-9.15-16.88-52.72-16.88-52.72c25.2,7.85,41.33-4.83,41.33-4.83C-2200.99-51.98-2179.13-58.04-2179.13-58.04z
			 M-2208.19-139.96c6.23,5.73,7.78,20.86,7.78,20.86s11.1-13.88,27.75,0c16.66,13.87,0.92,28.68,0.92,28.68s24.06-1.86,14.8,16.64
			c-7.64,15.26-24.06,3.7-24.06,3.7c-23.12,8.32-35.15-1.85-35.15-1.85c-24.05,16.65-40.69,3.7-40.69,3.7s-8.33,12.03-18.51,0
			c-10.18-12.02,7.4-24.05,7.4-24.05s-15.01-18.53-4.63-29.6c13.88-14.8,31.45,0.93,31.45,0.93s-0.72-17.03,9.85-21.52
			C-2224.96-145.13-2214.01-145.31-2208.19-139.96z M-2249-108.44l-9.31-2c-1.19-0.25-2.36,0.51-2.62,1.69l-0.24,1.13
			c-0.25,1.19,0.5,2.37,1.69,2.62l9.32,2c1.18,0.24,2.36-0.5,2.61-1.7l0.24-1.13C-2247.06-107.01-2247.8-108.19-2249-108.44z
			 M-2233.84-88.7l-0.76-0.87c-0.81-0.91-2.2-1-3.11-0.18l-7.12,6.31c-0.92,0.81-1,2.2-0.2,3.1l0.78,0.88
			c0.81,0.92,2.21,1,3.12,0.18l7.12-6.3C-2233.11-86.4-2233.03-87.79-2233.84-88.7z M-2218.94-123.31l-1-0.31
			c-1.07-0.31-2.19,0.3-2.5,1.36l-2.44,8.3c-0.31,1.07,0.3,2.19,1.36,2.5l1.01,0.29c1.06,0.32,2.18-0.29,2.49-1.36l2.44-8.31
			C-2217.27-121.89-2217.88-123.01-2218.94-123.31z M-2198-81.24l-3.74-8.75c-0.48-1.12-1.78-1.64-2.9-1.16l-1.06,0.46
			c-1.12,0.46-1.64,1.77-1.16,2.88l3.75,8.75c0.48,1.12,1.78,1.64,2.9,1.16l1.06-0.45C-2198.05-78.83-2197.53-80.12-2198-81.24z
			 M-2183-107.05l-8.16-2.91c-1.03-0.37-2.19,0.18-2.56,1.22l-0.36,1c-0.37,1.04,0.18,2.19,1.22,2.57l8.15,2.91
			c1.04,0.37,2.19-0.17,2.57-1.21l0.35-0.99C-2181.43-105.52-2181.97-106.67-2183-107.05z"/>
	</g>
</g>
<g>
	<g>
		<path class="st2" d="M271.41,214.8c0,0-11.27,91.33-34.14,108.08c-18.74,13.73-75.48,15.34-92.93,0
			c-21.28-18.77-34.6-108.08-34.6-108.08c51.68,16.1,84.73-9.91,84.73-9.91C226.59,227.22,271.41,214.8,271.41,214.8z M211.83,46.84
			c12.78,11.75,15.96,42.77,15.96,42.77s22.76-28.46,56.9,0c34.15,28.44,1.89,58.8,1.89,58.8s49.32-3.81,30.35,34.12
			c-15.66,31.28-49.32,7.59-49.32,7.59c-47.4,17.06-72.06-3.8-72.06-3.8c-49.31,34.14-83.43,7.58-83.43,7.58s-17.08,24.67-37.94,0
			c-20.87-24.64,15.17-49.31,15.17-49.31s-30.77-37.99-9.48-60.68c28.45-30.34,64.48,1.9,64.48,1.9s-1.48-34.91,20.19-44.11
			C177.45,36.24,199.9,35.87,211.83,46.84z M128.16,111.46l-19.08-4.1c-2.43-0.51-4.84,1.04-5.36,3.47l-0.5,2.32
			c-0.51,2.44,1.03,4.85,3.46,5.37l19.1,4.11c2.42,0.5,4.84-1.03,5.35-3.48l0.5-2.32C132.14,114.4,130.62,111.99,128.16,111.46z
			 M159.24,151.94l-1.56-1.79c-1.65-1.87-4.51-2.04-6.38-0.38l-14.61,12.93c-1.88,1.65-2.05,4.51-0.41,6.36l1.59,1.8
			c1.65,1.88,4.52,2.04,6.39,0.38l14.59-12.92C160.73,156.66,160.91,153.8,159.24,151.94z M189.78,80.98l-2.06-0.63
			c-2.19-0.63-4.48,0.61-5.12,2.78l-5.01,17.02c-0.63,2.19,0.61,4.48,2.78,5.12l2.08,0.6c2.18,0.65,4.46-0.6,5.11-2.78l5.01-17.04
			C193.21,83.9,191.96,81.6,189.78,80.98z M232.71,167.23l-7.67-17.94c-0.98-2.29-3.65-3.36-5.95-2.38l-2.18,0.95
			c-2.29,0.95-3.37,3.63-2.38,5.91l7.68,17.94c0.98,2.31,3.65,3.36,5.94,2.38l2.18-0.93C232.62,172.18,233.69,169.52,232.71,167.23z
			 M263.46,114.32l-16.74-5.96c-2.12-0.75-4.49,0.36-5.25,2.49l-0.74,2.04c-0.76,2.13,0.36,4.5,2.51,5.26l16.71,5.96
			c2.13,0.75,4.48-0.35,5.26-2.48l0.71-2.03C266.7,117.45,265.58,115.09,263.46,114.32z"/>
	</g>
</g>
<g class="st4">
	<g class="st5">
		<path class="st3" d="M-2219.28,790.24c-144.24,0-279.84-56.17-381.84-158.16c-101.99-101.99-158.16-237.6-158.16-381.84
			c0-144.24,56.17-279.84,158.16-381.84c101.99-101.99,237.6-158.16,381.84-158.16c144.24,0,279.85,56.17,381.84,158.16
			c101.99,101.99,158.16,237.6,158.16,381.84c0,144.24-56.17,279.85-158.16,381.84C-1939.43,734.07-2075.04,790.24-2219.28,790.24z
			 M-2219.28-287.42c-296.46,0-537.65,241.19-537.65,537.65s241.19,537.65,537.65,537.65c296.46,0,537.65-241.19,537.65-537.65
			S-1922.81-287.42-2219.28-287.42z"/>
	</g>
</g>
</svg>
